<?xml version="1.0" standalone="no"?>
<!DOCTYPE svg PUBLIC "-//W3C//DTD SVG 20010904//EN"
 "http://www.w3.org/TR/2001/REC-SVG-20010904/DTD/svg10.dtd">
<svg version="1.0" xmlns="http://www.w3.org/2000/svg"
 width="1132.000000pt" height="400.000000pt" viewBox="0 0 0 0"
 preserveAspectRatio="xMidYMid meet">

<g transform="translate(0.000000,400.000000) scale(0.100000,-0.100000)"
fill="#000000" stroke="none">
<path d="M2828 3993 c1557 -2 4107 -2 5665 0 1557 1 283 2 -2833 2 -3116 0
-4390 -1 -2832 -2z"/>
<path d="M2195 3021 c-181 -52 -314 -205 -347 -398 -50 -295 212 -583 508
-560 l62 5 111 -112 111 -111 -110 -110 -110 -110 -72 3 c-288 11 -528 -241
-505 -528 6 -71 36 -161 63 -191 10 -11 30 -19 47 -19 25 0 50 19 142 110 86
85 117 110 138 110 36 0 67 -33 67 -72 0 -26 -17 -48 -110 -143 -65 -66 -110
-119 -110 -131 0 -35 29 -62 88 -84 172 -65 376 -19 507 114 101 103 145 211
145 361 l0 80 108 108 107 107 113 -113 112 -113 -6 -46 c-9 -67 12 -172 51
-254 120 -250 446 -349 682 -208 75 46 117 85 164 158 128 194 96 464 -72 623
-93 88 -240 140 -364 131 l-63 -6 -106 107 c-58 58 -106 111 -106 116 0 6 47
57 104 114 l104 103 98 3 c108 3 177 22 255 70 142 88 229 245 229 415 0 88
-29 199 -61 231 -39 39 -65 27 -185 -91 -123 -120 -145 -130 -189 -85 -42 41
-33 59 86 181 105 107 110 115 107 151 -4 45 -31 64 -128 89 -226 58 -469 -62
-564 -278 -32 -71 -50 -176 -42 -236 l6 -46 -107 -108 c-59 -60 -112 -108
-118 -108 -6 0 -56 46 -113 103 l-102 102 0 81 c0 93 -19 177 -58 248 -36 68
-135 167 -200 200 -112 57 -250 71 -367 37z m277 -149 c66 -29 143 -104 175
-171 26 -51 28 -65 28 -173 l0 -118 133 -132 132 -133 -100 -100 -100 -100
-134 134 -133 133 -84 -7 c-177 -15 -314 61 -381 212 -31 70 -31 200 0 267 44
97 99 150 199 192 49 21 71 24 138 21 53 -2 96 -11 127 -25z m1261 -34 c-104
-106 -125 -182 -75 -279 47 -94 141 -136 242 -109 32 9 62 29 110 76 37 35 70
64 75 64 4 0 6 -30 3 -68 -9 -127 -85 -234 -206 -290 -52 -25 -66 -27 -171
-25 l-114 2 -462 -462 -462 -463 1 -119 c1 -116 0 -122 -31 -181 -57 -110
-166 -182 -289 -192 -36 -2 -64 -1 -64 4 0 6 25 34 56 64 67 65 93 117 94 183
0 107 -98 207 -202 207 -66 0 -108 -20 -177 -86 -38 -35 -72 -64 -76 -64 -16
0 5 129 29 183 31 71 101 141 174 175 52 24 68 27 174 27 l118 0 462 462 462
462 -4 53 c-11 139 4 211 60 293 59 86 169 144 275 145 l59 0 -61 -62z m-258
-1228 c76 -76 139 -131 151 -131 10 0 51 3 91 7 61 6 81 3 139 -17 86 -30 162
-98 201 -177 25 -50 28 -68 28 -152 0 -114 -18 -163 -91 -240 -188 -201 -522
-111 -590 159 -15 61 -15 83 2 179 6 32 0 39 -132 173 l-138 139 94 95 c52 52
99 95 105 95 5 0 69 -59 140 -130z"/>
<path d="M2256 2745 c-44 -12 -85 -31 -92 -40 -16 -22 -54 -163 -54 -201 0
-25 15 -45 79 -107 43 -42 83 -77 89 -77 33 0 199 53 214 68 15 15 68 181 68
214 0 6 -35 46 -77 89 -89 92 -96 93 -227 54z m125 -151 c24 -23 26 -29 17
-63 -8 -32 -16 -40 -46 -49 -34 -11 -39 -10 -66 17 -25 25 -28 34 -22 66 11
57 71 73 117 29z"/>
<path d="M3695 1333 c-49 -13 -97 -32 -107 -41 -18 -19 -59 -156 -60 -203 -1
-25 12 -44 73 -105 61 -62 79 -74 106 -74 48 0 185 39 205 58 19 20 58 157 58
205 0 27 -12 44 -72 104 -40 39 -82 73 -93 76 -11 3 -60 -6 -110 -20z m122
-222 c-9 -32 -16 -39 -48 -48 -36 -9 -40 -8 -67 21 -26 28 -28 35 -20 68 8 31
15 38 46 46 33 8 40 6 68 -20 29 -27 30 -31 21 -67z"/>
<path d="M5700 1870 l0 -330 65 0 65 0 0 68 c0 55 4 72 19 86 11 10 24 15 29
12 6 -3 31 -42 57 -86 l47 -80 74 0 c41 0 74 3 74 8 0 4 -36 61 -80 127 -44
66 -80 126 -80 133 0 7 34 52 75 100 l75 87 -77 3 -77 3 -36 -43 c-19 -24 -50
-59 -67 -78 l-32 -35 -1 178 0 177 -65 0 -65 0 0 -330z"/>
<path d="M8810 1870 l0 -330 65 0 65 0 0 169 c0 183 1 186 58 197 22 4 40 1
57 -10 l25 -16 0 -170 0 -170 70 0 70 0 0 173 c0 196 -12 240 -72 277 -44 28
-131 24 -176 -9 l-32 -22 0 120 0 121 -65 0 -65 0 0 -330z"/>
<path d="M4660 1850 l0 -310 168 0 c187 0 225 10 274 69 64 75 38 216 -45 244
-6 2 3 16 21 33 88 79 45 230 -75 263 -21 6 -107 11 -190 11 l-153 0 0 -310z
m272 200 c44 -13 63 -53 47 -99 -13 -36 -50 -51 -125 -51 l-54 0 0 80 0 80 48
0 c26 0 63 -5 84 -10z m49 -269 c10 -13 19 -38 19 -57 0 -61 -52 -89 -150 -82
l-45 3 -3 84 -3 83 82 -4 c70 -3 83 -6 100 -27z"/>
<path d="M7330 2110 l0 -50 90 0 90 0 0 -260 0 -260 70 0 70 0 0 260 0 260 95
0 95 0 0 50 0 50 -255 0 -255 0 0 -50z"/>
<path d="M5303 1984 c-40 -19 -57 -35 -72 -68 -12 -23 -21 -45 -21 -49 0 -4
30 -7 68 -7 60 0 68 2 77 22 27 60 115 39 115 -27 l0 -35 -53 0 c-77 0 -151
-25 -180 -60 -53 -62 -40 -156 26 -204 40 -29 155 -30 187 -1 20 18 22 18 31
2 8 -13 24 -17 72 -17 l62 0 -3 167 c-3 149 -6 173 -25 213 -43 89 -176 119
-284 64z m167 -277 c0 -48 -17 -70 -61 -80 -35 -9 -69 17 -69 52 0 43 36 69
98 70 31 1 32 0 32 -42z"/>
<path d="M6280 1994 c-75 -32 -117 -99 -127 -197 -10 -115 28 -195 116 -239
94 -48 228 -32 287 33 17 19 16 21 -16 54 l-33 34 -29 -22 c-21 -16 -44 -22
-80 -22 -43 0 -53 4 -79 33 -53 59 -47 62 116 62 l145 0 0 54 c0 63 -22 131
-53 165 -52 56 -170 78 -247 45z m145 -109 c14 -13 25 -36 25 -50 0 -25 -1
-25 -81 -25 l-81 0 6 28 c9 35 50 72 82 72 14 0 36 -11 49 -25z"/>
<path d="M6834 2000 c-12 -5 -29 -19 -38 -32 l-16 -22 0 27 c0 27 -1 27 -65
27 l-65 0 0 -230 0 -230 65 0 65 0 0 150 c0 137 2 152 20 170 19 19 46 25 98
20 21 -1 22 2 22 64 l0 66 -32 -1 c-18 0 -43 -4 -54 -9z"/>
<path d="M7973 1991 c-81 -37 -131 -146 -120 -259 13 -121 105 -202 233 -202
69 0 137 25 170 61 17 19 16 21 -16 54 l-33 34 -29 -22 c-21 -16 -44 -22 -80
-22 -43 0 -53 4 -79 33 -53 59 -47 62 116 62 l145 0 0 53 c0 105 -38 173 -115
208 -53 24 -138 24 -192 0z m152 -106 c14 -13 25 -36 25 -50 0 -25 -1 -25 -81
-25 l-81 0 6 28 c9 35 50 72 82 72 14 0 36 -11 49 -25z"/>
<path d="M8454 1995 c-44 -20 -101 -87 -115 -137 -6 -24 -9 -76 -7 -115 9
-136 86 -213 211 -213 103 0 181 54 194 136 l6 34 -62 0 c-56 0 -62 -2 -71
-25 -20 -53 -95 -58 -127 -9 -20 31 -23 166 -5 201 30 56 104 54 128 -3 14
-33 16 -34 74 -34 58 0 60 1 60 25 0 51 -56 123 -113 144 -39 15 -135 12 -173
-4z"/>
<path d="M6990 1805 l0 -55 125 0 125 0 0 55 0 55 -125 0 -125 0 0 -55z"/>
</g>
</svg>
